<svg id="visual" viewBox="0 0 900 600" width="900" height="600" xmlns="http://www.w3.org/2000/svg" xmlns:xlink="http://www.w3.org/1999/xlink" version="1.1"><rect x="0" y="0" width="900" height="600" fill="#140021"></rect><path d="M0 348L129 348L129 380L257 380L257 303L386 303L386 253L514 253L514 283L643 283L643 357L771 357L771 368L900 368L900 305L900 601L900 601L771 601L771 601L643 601L643 601L514 601L514 601L386 601L386 601L257 601L257 601L129 601L129 601L0 601Z" fill="#9900ff"></path><path d="M0 366L129 366L129 451L257 451L257 401L386 401L386 395L514 395L514 431L643 431L643 409L771 409L771 454L900 454L900 371L900 601L900 601L771 601L771 601L643 601L643 601L514 601L514 601L386 601L386 601L257 601L257 601L129 601L129 601L0 601Z" fill="#7700c6"></path><path d="M0 525L129 525L129 460L257 460L257 489L386 489L386 532L514 532L514 488L643 488L643 474L771 474L771 532L900 532L900 524L900 601L900 601L771 601L771 601L643 601L643 601L514 601L514 601L386 601L386 601L257 601L257 601L129 601L129 601L0 601Z" fill="#560090"></path></svg>