<svg id="visual" viewBox="0 0 900 600" width="900" height="600" xmlns="http://www.w3.org/2000/svg" xmlns:xlink="http://www.w3.org/1999/xlink" version="1.1"><rect x="0" y="0" width="900" height="600" fill="#f3e9dc"></rect><path d="M0 403L9.3 403.3C18.7 403.7 37.3 404.3 56.2 402.5C75 400.7 94 396.3 112.8 388C131.7 379.7 150.3 367.3 169 367.7C187.7 368 206.3 381 225 387.3C243.7 393.7 262.3 393.3 281.2 390.7C300 388 319 383 337.8 384.3C356.7 385.7 375.3 393.3 394 394.7C412.7 396 431.3 391 450 390.2C468.7 389.3 487.3 392.7 506.2 386.8C525 381 544 366 562.8 361.3C581.7 356.7 600.3 362.3 619 369.8C637.7 377.3 656.3 386.7 675 391C693.7 395.3 712.3 394.7 731.2 390.2C750 385.7 769 377.3 787.8 371.2C806.7 365 825.3 361 844 361C862.7 361 881.3 365 890.7 367L900 369L900 601L890.7 601C881.3 601 862.7 601 844 601C825.3 601 806.7 601 787.8 601C769 601 750 601 731.2 601C712.3 601 693.7 601 675 601C656.3 601 637.7 601 619 601C600.3 601 581.7 601 562.8 601C544 601 525 601 506.2 601C487.3 601 468.7 601 450 601C431.3 601 412.7 601 394 601C375.3 601 356.7 601 337.8 601C319 601 300 601 281.2 601C262.3 601 243.7 601 225 601C206.3 601 187.7 601 169 601C150.3 601 131.7 601 112.8 601C94 601 75 601 56.2 601C37.3 601 18.7 601 9.3 601L0 601Z" fill="#c08552"></path><path d="M0 381L9.3 385C18.7 389 37.3 397 56.2 403C75 409 94 413 112.8 416.7C131.7 420.3 150.3 423.7 169 420.7C187.7 417.7 206.3 408.3 225 405.8C243.7 403.3 262.3 407.7 281.2 411.2C300 414.7 319 417.3 337.8 416.7C356.7 416 375.3 412 394 410.5C412.7 409 431.3 410 450 406C468.7 402 487.3 393 506.2 389.2C525 385.3 544 386.7 562.8 386.8C581.7 387 600.3 386 619 392.5C637.7 399 656.3 413 675 413.2C693.7 413.3 712.3 399.7 731.2 400.2C750 400.7 769 415.3 787.8 421.2C806.7 427 825.3 424 844 422C862.7 420 881.3 419 890.7 418.5L900 418L900 601L890.7 601C881.3 601 862.7 601 844 601C825.3 601 806.7 601 787.8 601C769 601 750 601 731.2 601C712.3 601 693.7 601 675 601C656.3 601 637.7 601 619 601C600.3 601 581.7 601 562.8 601C544 601 525 601 506.2 601C487.3 601 468.7 601 450 601C431.3 601 412.7 601 394 601C375.3 601 356.7 601 337.8 601C319 601 300 601 281.2 601C262.3 601 243.7 601 225 601C206.3 601 187.7 601 169 601C150.3 601 131.7 601 112.8 601C94 601 75 601 56.2 601C37.3 601 18.7 601 9.3 601L0 601Z" fill="#b27646"></path><path d="M0 424L9.3 426C18.7 428 37.3 432 56.2 437.5C75 443 94 450 112.8 450C131.7 450 150.3 443 169 439C187.7 435 206.3 434 225 436.5C243.7 439 262.3 445 281.2 449.3C300 453.7 319 456.3 337.8 453.8C356.7 451.3 375.3 443.7 394 441C412.7 438.3 431.3 440.7 450 439.2C468.7 437.7 487.3 432.3 506.2 432.2C525 432 544 437 562.8 442.2C581.7 447.3 600.3 452.7 619 455.2C637.7 457.7 656.3 457.3 675 449.7C693.7 442 712.3 427 731.2 421.8C750 416.7 769 421.3 787.8 423.2C806.7 425 825.3 424 844 425.2C862.7 426.3 881.3 429.7 890.7 431.3L900 433L900 601L890.7 601C881.3 601 862.7 601 844 601C825.3 601 806.7 601 787.8 601C769 601 750 601 731.2 601C712.3 601 693.7 601 675 601C656.3 601 637.7 601 619 601C600.3 601 581.7 601 562.8 601C544 601 525 601 506.2 601C487.3 601 468.7 601 450 601C431.3 601 412.7 601 394 601C375.3 601 356.7 601 337.8 601C319 601 300 601 281.2 601C262.3 601 243.7 601 225 601C206.3 601 187.7 601 169 601C150.3 601 131.7 601 112.8 601C94 601 75 601 56.2 601C37.3 601 18.7 601 9.3 601L0 601Z" fill="#a4673b"></path><path d="M0 468L9.3 468.2C18.7 468.3 37.3 468.7 56.2 468.2C75 467.7 94 466.3 112.8 465.7C131.7 465 150.3 465 169 462.5C187.7 460 206.3 455 225 457C243.7 459 262.3 468 281.2 470.5C300 473 319 469 337.8 468.5C356.7 468 375.3 471 394 470.2C412.7 469.3 431.3 464.7 450 461.7C468.7 458.7 487.3 457.3 506.2 454.2C525 451 544 446 562.8 450.5C581.7 455 600.3 469 619 476C637.7 483 656.3 483 675 476.8C693.7 470.7 712.3 458.3 731.2 457.7C750 457 769 468 787.8 468.7C806.7 469.3 825.3 459.7 844 458.2C862.7 456.7 881.3 463.3 890.7 466.7L900 470L900 601L890.7 601C881.3 601 862.7 601 844 601C825.3 601 806.7 601 787.8 601C769 601 750 601 731.2 601C712.3 601 693.7 601 675 601C656.3 601 637.7 601 619 601C600.3 601 581.7 601 562.8 601C544 601 525 601 506.2 601C487.3 601 468.7 601 450 601C431.3 601 412.7 601 394 601C375.3 601 356.7 601 337.8 601C319 601 300 601 281.2 601C262.3 601 243.7 601 225 601C206.3 601 187.7 601 169 601C150.3 601 131.7 601 112.8 601C94 601 75 601 56.2 601C37.3 601 18.7 601 9.3 601L0 601Z" fill="#96592f"></path><path d="M0 476L9.3 474.2C18.7 472.3 37.3 468.7 56.2 472C75 475.3 94 485.7 112.8 488.3C131.7 491 150.3 486 169 483.5C187.7 481 206.3 481 225 482.2C243.7 483.3 262.3 485.7 281.2 484.7C300 483.7 319 479.3 337.8 477.3C356.7 475.3 375.3 475.7 394 475.7C412.7 475.7 431.3 475.3 450 473.5C468.7 471.7 487.3 468.3 506.2 470.7C525 473 544 481 562.8 484C581.7 487 600.3 485 619 483.5C637.7 482 656.3 481 675 482.2C693.7 483.3 712.3 486.7 731.2 488.5C750 490.3 769 490.7 787.8 487.3C806.7 484 825.3 477 844 474.2C862.7 471.3 881.3 472.7 890.7 473.3L900 474L900 601L890.7 601C881.3 601 862.7 601 844 601C825.3 601 806.7 601 787.8 601C769 601 750 601 731.2 601C712.3 601 693.7 601 675 601C656.3 601 637.7 601 619 601C600.3 601 581.7 601 562.8 601C544 601 525 601 506.2 601C487.3 601 468.7 601 450 601C431.3 601 412.7 601 394 601C375.3 601 356.7 601 337.8 601C319 601 300 601 281.2 601C262.3 601 243.7 601 225 601C206.3 601 187.7 601 169 601C150.3 601 131.7 601 112.8 601C94 601 75 601 56.2 601C37.3 601 18.7 601 9.3 601L0 601Z" fill="#884b25"></path><path d="M0 507L9.3 508.5C18.7 510 37.3 513 56.2 514.5C75 516 94 516 112.8 515.8C131.7 515.7 150.3 515.3 169 515.2C187.7 515 206.3 515 225 512.8C243.7 510.7 262.3 506.3 281.2 504.3C300 502.3 319 502.7 337.8 504C356.7 505.3 375.3 507.7 394 511.7C412.7 515.7 431.3 521.3 450 520.7C468.7 520 487.3 513 506.2 511.8C525 510.7 544 515.3 562.8 518.8C581.7 522.3 600.3 524.7 619 522.3C637.7 520 656.3 513 675 510.3C693.7 507.7 712.3 509.3 731.2 508.7C750 508 769 505 787.8 506.3C806.7 507.7 825.3 513.3 844 518C862.7 522.7 881.3 526.3 890.7 528.2L900 530L900 601L890.7 601C881.3 601 862.7 601 844 601C825.3 601 806.7 601 787.8 601C769 601 750 601 731.2 601C712.3 601 693.7 601 675 601C656.3 601 637.7 601 619 601C600.3 601 581.7 601 562.8 601C544 601 525 601 506.2 601C487.3 601 468.7 601 450 601C431.3 601 412.7 601 394 601C375.3 601 356.7 601 337.8 601C319 601 300 601 281.2 601C262.3 601 243.7 601 225 601C206.3 601 187.7 601 169 601C150.3 601 131.7 601 112.8 601C94 601 75 601 56.2 601C37.3 601 18.7 601 9.3 601L0 601Z" fill="#7a3e1a"></path><path d="M0 534L9.3 534.7C18.7 535.3 37.3 536.7 56.2 537.2C75 537.7 94 537.3 112.8 538.8C131.7 540.3 150.3 543.7 169 546.3C187.7 549 206.3 551 225 549.7C243.7 548.3 262.3 543.7 281.2 542.5C300 541.3 319 543.7 337.8 545.8C356.7 548 375.3 550 394 547.5C412.7 545 431.3 538 450 534.2C468.7 530.3 487.3 529.7 506.2 530.7C525 531.7 544 534.3 562.8 534.2C581.7 534 600.3 531 619 533C637.7 535 656.3 542 675 542.3C693.7 542.7 712.3 536.3 731.2 537C750 537.7 769 545.3 787.8 544.5C806.7 543.7 825.3 534.3 844 530.7C862.7 527 881.3 529 890.7 530L900 531L900 601L890.7 601C881.3 601 862.7 601 844 601C825.3 601 806.7 601 787.8 601C769 601 750 601 731.2 601C712.3 601 693.7 601 675 601C656.3 601 637.7 601 619 601C600.3 601 581.7 601 562.8 601C544 601 525 601 506.2 601C487.3 601 468.7 601 450 601C431.3 601 412.7 601 394 601C375.3 601 356.7 601 337.8 601C319 601 300 601 281.2 601C262.3 601 243.7 601 225 601C206.3 601 187.7 601 169 601C150.3 601 131.7 601 112.8 601C94 601 75 601 56.2 601C37.3 601 18.7 601 9.3 601L0 601Z" fill="#6c300f"></path><path d="M0 577L9.3 576.7C18.7 576.3 37.3 575.7 56.2 575.8C75 576 94 577 112.8 577C131.7 577 150.3 576 169 573.3C187.7 570.7 206.3 566.3 225 563C243.7 559.7 262.3 557.3 281.2 559.5C300 561.7 319 568.3 337.8 570C356.7 571.7 375.3 568.3 394 566C412.7 563.7 431.3 562.3 450 562.2C468.7 562 487.3 563 506.2 562C525 561 544 558 562.8 558.5C581.7 559 600.3 563 619 565.2C637.7 567.3 656.3 567.7 675 568.7C693.7 569.7 712.3 571.3 731.2 571.8C750 572.3 769 571.7 787.8 570.8C806.7 570 825.3 569 844 570.3C862.7 571.7 881.3 575.3 890.7 577.2L900 579L900 601L890.7 601C881.3 601 862.7 601 844 601C825.3 601 806.7 601 787.8 601C769 601 750 601 731.2 601C712.3 601 693.7 601 675 601C656.3 601 637.7 601 619 601C600.3 601 581.7 601 562.8 601C544 601 525 601 506.2 601C487.3 601 468.7 601 450 601C431.3 601 412.7 601 394 601C375.3 601 356.7 601 337.8 601C319 601 300 601 281.2 601C262.3 601 243.7 601 225 601C206.3 601 187.7 601 169 601C150.3 601 131.7 601 112.8 601C94 601 75 601 56.2 601C37.3 601 18.7 601 9.3 601L0 601Z" fill="#5e2303"></path></svg>